<svg xmlns="http://www.w3.org/2000/svg" viewBox="0 0 1024 1024">
<rect width="1024" height="1024" rx="224" fill="#110E08"></rect>
<g transform="translate(-359.7,-356.75) scale(0.85)">
<path d="M 932.317 621.159 C 1051.48 673.443 1144.66 799.504 1085.06 931.261 C 1041.75 1027.01 934.779 1096.15 932.003 1207.06 C 930.2 1279.1 982.368 1342.53 1045.88 1371.09 C 1077.94 1385.51 1108.87 1389.14 1143.89 1387.78 C 1153.86 1386.81 1162.4 1386 1172.31 1384.23 C 1165.64 1387.73 1154.76 1393.87 1148.16 1396.63 C 1119.79 1413.56 1059.85 1425.69 1026.33 1426.21 C 896.495 1427.81 771.383 1331.51 751.126 1200.98 C 733.78 1089.19 783.79 1019.48 846.184 937.13 L 910.945 850.539 C 929.704 825.502 948.152 803.424 959.427 773.788 C 981.463 715.868 972.903 666.644 928.591 624 L 932.317 621.159 z" fill="#00C805"></path>
<path d="M 1160.55 826.593 C 1168.27 831.347 1190.71 867.228 1196.56 876.091 C 1228.83 924.578 1252.18 975.689 1272.47 1030.01 C 1290.01 1076.99 1301.55 1112.21 1299.9 1163.05 C 1297.33 1242.52 1267.23 1302.12 1210.13 1356.12 C 1129.27 1328.74 1142.74 1284.5 1150.61 1215.44 C 1155.78 1175.35 1151.03 1122.23 1130.87 1087 C 1119.01 1151.09 1076.01 1198.83 1030.45 1242.88 C 1011.65 1146.84 1081.46 1075.35 1129.81 1002.11 C 1165.59 947.915 1174.73 889.33 1160.55 826.593 z" fill="#00C805"></path>
<path d="M 918.974 616.011 C 923.15 617.618 928.33 619.435 932.317 621.159 L 928.591 624 C 925.345 621.294 922.193 618.773 918.974 616.011 z" fill="#00C805"></path>
</g>
</svg>