<svg xmlns="http://www.w3.org/2000/svg" viewBox="624 429 800 310">
<path d="M 742.927 449.336 C 744.08 450.003 745.192 450.74 746.255 451.543 C 760.527 462.328 777.508 486.725 779.111 504.059 C 785.005 550.974 742.719 567.885 717.936 597.418 C 691.106 629.391 724.387 684.116 766.083 675.065 C 785.264 670.902 792.937 663.903 803.82 648.774 C 768.511 638.277 757.845 608.635 776.378 575.358 C 779.948 568.949 787.175 562.898 790.777 556.192 C 798.768 541.311 796.85 525.187 792.591 509.712 C 804.528 523.539 818.743 545.341 826.806 561.616 C 847.364 603.573 848.661 652.077 814.753 687.629 C 796.351 707.258 770.782 718.595 743.88 719.054 C 718.38 719.732 693.649 710.287 675.093 692.783 C 655.236 673.701 645.24 649.027 644.885 621.922 C 644.11 562.729 687.323 544.367 723.784 507.894 C 742.068 489.604 743.293 473.226 742.927 449.336 z" fill="#00C805"></path>
<path d="M 1096.04 492.122 C 1124.53 492.081 1184.22 488.458 1208.58 497.437 C 1222.04 502.4 1234.41 511.119 1240.45 524.511 C 1246.38 537.673 1246.29 555.387 1241.05 568.759 C 1234.52 585.423 1221.76 594.704 1205.91 601.531 C 1219.56 622.891 1239.26 656.714 1251.95 679.095 L 1217.39 679.123 C 1203.56 654.789 1187.83 630.308 1174.84 605.848 L 1129.2 605.909 L 1129.09 679.053 L 1096.04 679.09 L 1096.04 492.122 z" fill="#F5F3EE"></path>
<path d="M 1129.4 519.988 C 1151 519.957 1190.14 515.567 1205.38 529.262 C 1210.7 534.089 1213.9 540.824 1214.27 547.999 C 1214.75 557.687 1209.81 564.169 1203.68 570.865 C 1185.75 584.439 1151.73 579.988 1129.35 579.886 L 1129.4 519.988 z" fill="#110E08"></path>
<path d="M 1266.47 492.148 L 1401.18 492.093 L 1401.14 519.802 L 1300.55 519.912 L 1300.47 570.99 L 1381.28 570.984 L 1381.24 598.468 C 1363 598.506 1321.8 598.356 1301.94 599.038 C 1301.45 599.464 1300.95 599.889 1300.46 600.314 L 1300.43 651.964 L 1404.01 651.987 L 1404.05 679.09 L 1266.28 679.415 L 1266.47 492.148 z" fill="#F5F3EE"></path>
<path d="M 891.78 492.162 C 936.433 491.615 982.325 492.035 1027.06 491.981 L 1027.08 519.758 L 924.428 519.726 C 924.14 538.737 924.323 558.251 924.276 577.304 L 1002.79 577.363 L 1002.84 604.299 L 924.59 604.21 C 924.07 628.441 924.539 654.685 924.575 679.064 L 891.147 679.138 L 891.78 492.162 z" fill="#F5F3EE"></path>
<path d="M 1040.01 491.995 L 1072.95 491.977 L 1072.33 678.878 C 1065.55 679.573 1047.54 679.123 1039.93 679.154 L 1040.01 491.995 z" fill="#F5F3EE"></path>
</svg>