<svg xmlns="http://www.w3.org/2000/svg" viewBox="0 0 64 64" fill="none">
  
  <path d="M32 6c-1 6-6 9-10 14-5 6-7 12-7 18 0 11 8 19 17 19s17-8 17-19c0-7-3-13-9-19-3-3-6-7-8-13z" fill="#ff5b1f" stroke="#0a0a0a" stroke-width="2.5" stroke-linejoin="round"></path>
  
  <path d="M32 22c-.5 4-3 6-5 9-3 4-4 7-4 11 0 6 4 10 9 10s9-4 9-10c0-4-1-7-4-11-1-2-3-4-5-9z" fill="#ffb627" stroke="#0a0a0a" stroke-width="2" stroke-linejoin="round"></path>
  
  <ellipse cx="32" cy="46" rx="3" ry="4" fill="#0a0a0a"></ellipse>
</svg>