<svg xmlns="http://www.w3.org/2000/svg" height="1024" preserveAspectRatio="none" style="display: block;" version="1.1" viewBox="0 0 2048 2048" width="1024">
<path d="M 0 0 L 339.441 0 L 1715.7 0 L 2048 0 L 2048 337.078 L 2048 1712.85 L 2048 2048 L 1712.46 2048 L 336.089 2048 L 0 2048 L 0 1711.89 L 0 337.268 L 0 0 z" fill="rgb(17,14,8)" transform="translate(0,0)"></path>
<path d="M 0 1711.89 C 3.04253 1733.71 4.76157 1751.7 10.0227 1773.25 C 29.6349 1853.91 76.3932 1925.37 142.451 1975.63 C 182.206 2005.56 232.463 2029.75 281.374 2039.81 C 297.475 2043.12 323.3 2044.92 336.089 2048 L 0 2048 L 0 1711.89 z" fill="rgb(255,254,254)" transform="translate(0,0)"></path>
<path d="M 0 0 L 339.441 0 C 311.704 3.48777 296.151 4.45737 268.084 11.5147 C 191.098 31.6843 122.991 76.8529 74.4588 139.927 C 40.7358 183.307 17.667 233.997 7.1087 287.918 C 4.34776 302.219 2.63702 326.143 0 337.268 L 0 0 z" fill="rgb(255,254,254)" transform="translate(0,0)"></path>
<path d="M 2048 1712.85 L 2048 2048 L 1712.46 2048 C 1724.29 2045.34 1745.95 2044.25 1760.31 2041.46 C 1814.03 2030.46 1864.57 2007.5 1908.19 1974.29 C 1972.44 1924.86 2018.06 1855.13 2037.62 1776.46 C 2042.86 1755.08 2045.14 1734.63 2048 1712.85 z" fill="rgb(255,254,254)" transform="translate(0,0)"></path>
<path d="M 1715.7 0 L 2048 0 L 2048 337.078 C 2045.25 323.133 2044.37 304.887 2041.44 289.268 C 2031.83 239.596 2011.77 192.535 1982.59 151.206 C 1935.84 84.6079 1867.89 36.776 1789.6 13.7927 C 1761.25 5.46926 1743.37 4.78539 1715.7 0 z" fill="rgb(255,254,254)" transform="translate(0,0)"></path>
<path d="M 1301.7 443.442 C 1326.18 442.12 1358.8 444.701 1383.89 446.314 C 1373.2 452.405 1361.97 460.181 1351.94 467.285 C 1264.85 528.96 1193.56 614.273 1175.91 722.366 C 1166.12 782.3 1177.93 848.001 1213.3 898.269 C 1251.57 952.662 1318.06 979.51 1381.97 990.078 C 1315.01 1116.5 1244.14 1194.88 1125.62 1276.76 C 1093.33 1299.07 1060.03 1318.04 1027.37 1339.07 C 954.229 1385.2 883.15 1434.53 814.342 1486.92 C 769.236 1521.67 704.758 1575.27 666.639 1616.1 C 704.238 1521.23 725.044 1433.07 725.376 1330.31 C 725.471 1300.73 725.873 1274.18 723.061 1244.42 C 718.661 1197.86 709.465 1157.28 707.501 1110.16 C 700.057 931.563 756.386 771.994 877.211 640.092 C 987.417 521.376 1139.88 450.746 1301.7 443.442 z" fill="rgb(0,200,5)" transform="translate(0,0)"></path>
<metadata><recraft-signature>{"signed_by": "recraft", "signature_b64": "0JTNHWbTVrXphWEzo5f6iD24cbnX7sCCyhdZe9Ef9xCIX0YAv0F4QkUCuO+OKuGh/oBQLk5L4nV7sxsVRu0XAw==", "signing_algo": "Ed25519", "generation_timestamp": 1784257242, "identifier": "2fb8a8dc-619e-42d1-ae83-4dd4177eaa36"}</recraft-signature></metadata></svg>