<svg xmlns="http://www.w3.org/2000/svg" height="1024" preserveAspectRatio="none" style="display: block;" version="1.1" viewBox="0 0 2048 2048" width="1024">
<path d="M 0 0 L 406.293 0 L 1643.89 0 L 2048 0 L 2048 408.356 L 2048 1638.76 L 2048 2048 L 1642.91 2048 L 405.51 2048 L 0 2048 L 0 1642.68 L 0 407.111 L 0 0 z" fill="rgb(17,14,8)" transform="translate(0,0)"></path>
<path d="M 1643.89 0 L 2048 0 L 2048 408.356 C 2046.59 402.632 2045.94 393.028 2045.37 386.757 C 2038.26 307.771 2007.47 234.189 1960.12 170.411 C 1901.34 92.7011 1817.87 37.2965 1723.44 13.3007 C 1695.19 6.19078 1672.02 4.14499 1643.89 0 z" fill="rgb(255,255,254)" transform="translate(0,0)"></path>
<path d="M 0 1642.68 C 3.01396 1664.69 3.20527 1678.16 8.09446 1700.98 C 29.2755 1804.84 87.5718 1897.42 172.076 1961.41 C 224.397 2001.14 285.231 2028.17 349.782 2040.37 C 366.683 2043.57 391.863 2044.96 405.51 2048 L 0 2048 L 0 1642.68 z" fill="rgb(255,255,254)" transform="translate(0,0)"></path>
<path d="M 0 0 L 406.293 0 C 375.601 4.1497 355.111 6.08637 324.447 13.7401 C 229.975 37.3592 146.454 92.6486 87.8096 170.39 C 47.5257 223.34 20.0262 284.886 7.45841 350.221 C 4.16216 367.857 2.88889 393.474 0 407.111 L 0 0 z" fill="rgb(255,255,254)" transform="translate(0,0)"></path>
<path d="M 2048 1638.76 L 2048 2048 L 1642.91 2048 C 1658.89 2044.94 1678.77 2044.06 1697.1 2040.6 C 1762.78 2028.36 1824.69 2000.9 1877.85 1960.43 C 1957.87 1899.03 2014.09 1811.76 2036.9 1713.51 C 2043.31 1685.57 2044.32 1666.49 2048 1638.76 z" fill="rgb(255,255,254)" transform="translate(0,0)"></path>
<path d="M 1157.31 322.005 C 1168.49 320.132 1176.78 330.907 1184.54 337.907 C 1267.98 413.113 1337.05 497.501 1377.07 603.731 C 1400.03 666.174 1409.4 732.797 1404.56 799.151 C 1399.02 875.826 1371.74 953.839 1325.93 1015.92 C 1298.52 1053.06 1266.28 1084.32 1233.95 1116.98 L 1138.21 1213.37 C 1109.18 1242.5 1073.43 1278.21 1048.27 1310.26 C 1028.62 1335.44 1011.08 1362.2 995.82 1390.25 C 948.133 1476.21 918.697 1575.83 923.89 1674.68 C 924.535 1686.96 936.172 1719.88 925.076 1725.25 C 913.827 1725.02 902.355 1708.93 895.712 1700.48 C 865.428 1662.37 842.853 1618.73 829.249 1571.99 C 787.961 1430.62 826.704 1267.75 896.082 1141.53 C 920.235 1098.64 946.005 1058.61 978.376 1021.45 C 1007.72 987.77 1040.62 954.709 1070.2 921.33 C 1043.35 931.39 1009.64 951.281 986.386 968.178 C 878.055 1046.9 797.92 1157.38 759.2 1285.7 C 751.384 1311.88 745.204 1338.53 740.696 1365.48 C 738.913 1375.57 735.176 1403.78 732.434 1412.01 C 729.637 1414.81 731.237 1414.04 727.666 1414.78 C 720.176 1411.35 707.422 1391.31 702.257 1383.54 C 670.929 1336.61 651.152 1282.93 644.542 1226.89 C 638.764 1181.88 640.563 1136.22 649.864 1091.81 C 666.638 1008.71 706.613 940.141 766.433 880.734 C 774.21 873.011 781.942 865.059 789.626 857.232 C 809.364 836.816 829.22 816.514 849.193 796.327 L 1024.7 617.696 C 1060.68 581.178 1105.99 541.325 1130.35 496.485 C 1151.95 455.48 1157.15 410.973 1154.66 365.397 C 1153.86 350.643 1146.77 331.157 1157.31 322.005 z" fill="rgb(0,200,5)" transform="translate(0,0)"></path>
<metadata><recraft-signature>{"signed_by": "recraft", "signature_b64": "jyVQPNO8gfTvwuq1wOG4vSlglnQqZPawSHrEQLJx1n+FrtJSIh15ZYHp3TCDEkjL9c3ja8PxQjfdc55OglaiCA==", "signing_algo": "Ed25519", "generation_timestamp": 1784257242, "identifier": "04e26f38-8c40-46b4-bda2-489949ca68e3"}</recraft-signature></metadata></svg>