<svg xmlns="http://www.w3.org/2000/svg" height="1024" preserveAspectRatio="none" style="display: block;" version="1.1" viewBox="0 0 2048 2048" width="1024">
<path d="M 0 0 L 2048 0 L 2048 2048 L 0 2048 L 0 0 z" fill="rgb(17,14,8)" transform="translate(0,0)"></path>
<path d="M 895.644 945.279 C 956.725 965.409 988.902 1000.69 1001.27 1064 C 1004.39 1079.96 1003.58 1094.02 1003.52 1110.14 C 1003.38 1131.44 1003.39 1152.74 1003.54 1174.04 C 1003.82 1218.59 1002.9 1256.14 1032.33 1292.62 C 1058.36 1324.87 1112.99 1345.81 1153.23 1349.46 C 1152.37 1384.05 1152.79 1420.5 1152.74 1455.21 L 1152.71 1637.18 C 1124.39 1637.7 1094.26 1637.18 1065.82 1637.17 L 895.285 1637.11 L 895.148 1193.26 L 895.026 1035.63 C 894.994 1007.6 894.068 972.782 895.644 945.279 z" fill="rgb(7,254,50)" transform="translate(0,0)"></path>
<path d="M 1023.07 423.232 C 1025.1 417.706 1023.59 415.803 1024.66 411.95 L 1024.72 411.927 C 1025.29 412.752 1025.38 413.843 1025.55 414.805 L 1025.96 416.557 C 1026.48 453.489 1028.41 489.685 1029.68 526.499 L 1033.32 658.556 C 1033.88 680.813 1035.19 706.559 1035.1 728.576 C 1094.08 765.386 1165.73 805.936 1183.99 878.204 C 1199.5 939.616 1168.96 980.76 1136.6 1027.1 C 1105.65 1072.29 1071.71 1115.36 1034.99 1156 C 1034.21 1130.19 1032.66 1105.26 1031.39 1079.29 C 1029 1030.86 1018.26 989.978 980.589 956.279 C 965.014 942.345 947.447 929.055 929.743 917.704 C 867.524 883.973 828.39 833.774 825.614 759.753 C 822.746 683.289 855.503 612.515 896.256 547.802 L 898.279 551.921 C 894.95 562.975 895.355 576.211 897.255 587.504 C 906.639 643.285 969.731 684.445 1012.9 714.663 C 1013.07 681.042 1015.18 644.734 1016.37 610.943 L 1023.07 423.232 z" fill="rgb(7,254,50)" transform="translate(0,0)"></path>
<path d="M 1023.07 423.232 C 1022.84 418.955 1022.74 394.562 1025.05 392.768 C 1026.86 393.625 1026.06 413.814 1025.96 416.557 L 1025.55 414.805 C 1025.38 413.843 1025.29 412.752 1024.72 411.927 L 1024.66 411.95 C 1023.59 415.803 1025.1 417.706 1023.07 423.232 z" fill="rgb(36,154,47)" transform="translate(0,0)"></path>
<path d="M 896.256 547.802 C 897.837 544.024 901.647 538.843 904.033 535.337 C 902.208 540.322 899.712 546.953 898.279 551.921 L 896.256 547.802 z" fill="rgb(0,200,5)" transform="translate(0,0)"></path>
<metadata><recraft-signature>{"signed_by": "recraft", "signature_b64": "CCIoCFLoS04wsO7kSP1Sc0YYPFLc6Jg78a6yViXVG3w8nPGIvu9yhJg6eC7O5yGcsea2JJsp9uIhUXmn7SVqAw==", "signing_algo": "Ed25519", "generation_timestamp": 1784257238, "identifier": "27162593-2092-4a9d-b62d-19a3ce08be68"}</recraft-signature></metadata></svg>