<svg xmlns="http://www.w3.org/2000/svg" height="1024" preserveAspectRatio="none" style="display: block;" version="1.1" viewBox="0 0 2048 2048" width="1024">
<path d="M 0 0 L 2048 0 L 2048 2048 L 0 2048 L 0 0 z" fill="rgb(17,14,8)" transform="translate(0,0)"></path>
<path d="M 1005.38 484.956 L 1023.87 484.83 C 1023.02 523.267 1023.59 564.645 1023.91 603.168 C 1064.03 581.721 1094.36 572.138 1138.28 559.617 C 1117.85 575.976 1090.74 602.132 1082.56 627.042 C 1045.69 739.24 1161.87 839.255 1224.62 913.145 C 1326.54 1033.16 1373.88 1184.18 1315.27 1335.04 C 1279.35 1427.48 1211.86 1495.69 1121.25 1534.59 C 1088.55 1549.77 1044.27 1555.92 1007.96 1556.11 C 912.702 1556.61 832.298 1512.46 766.074 1446.93 C 753.942 1434.92 709.449 1380.6 708.406 1367.58 C 706.138 1339.26 707.276 1278.97 707.304 1249.28 L 707.184 932.752 L 869.571 932.709 C 869.452 879.576 866.404 832.253 880.856 780.275 C 898.078 718.336 948.6 645.938 1005.12 614.497 L 1005.38 484.956 z" fill="rgb(0,200,5)" transform="translate(0,0)"></path>
<path d="M 1024.64 999.569 C 1031.17 1004.42 1040.7 1013.41 1046.92 1019 C 1089.35 1057.23 1122.34 1101.41 1142.03 1155.2 C 1196.77 1304.83 1134.98 1442.7 981.334 1495.28 C 947.443 1505.55 913.123 1517.74 879.468 1527.11 L 879.808 1188.21 C 927.933 1187.75 976.059 1187.52 1024.19 1187.54 L 1024.64 999.569 z" fill="rgb(17,14,8)" transform="translate(0,0)"></path>
<metadata><recraft-signature>{"signed_by": "recraft", "signature_b64": "5xigDww3EbT4SRXzW4TvT+rCD1Qc0qk/2ImL3vBLDG/HF6Nvlnxx1xKcaCBs/PjEr40Fe/ESvFVDTF5j6AQmBA==", "signing_algo": "Ed25519", "generation_timestamp": 1784257234, "identifier": "0d042002-5afa-470d-92b5-b4beafa32108"}</recraft-signature></metadata></svg>