<svg xmlns="http://www.w3.org/2000/svg" height="1024" preserveAspectRatio="none" style="display: block;" version="1.1" viewBox="0 0 2048 2048" width="1024">
<path d="M 0 0 L 2048 0 L 2048 2048 L 0 2048 L 0 0 z" fill="rgb(17,14,8)" transform="translate(0,0)"></path>
<path d="M 1367.83 673.317 C 1389.65 681.274 1392.32 706.929 1404.55 721.905 C 1411.5 730.42 1425.19 739.811 1433.5 748.699 C 1476.4 794.534 1461.18 865.346 1401.03 885.941 C 1387.11 890.67 1371.98 888.518 1357.28 887.584 L 1356.99 887.857 C 1348.99 895.205 1331.24 918.125 1323.63 927.346 L 1203.58 1070.11 L 1172.19 1106.93 C 1156.49 1125.47 1145.19 1144.14 1118.54 1145.96 C 1087.52 1149.53 1077.15 1127.11 1058.2 1110.96 C 1023.99 1081.8 1000.39 1113.35 980.89 1136.81 C 961.356 1160.3 942.326 1196.29 910.908 1199.29 C 864.671 1203.71 847.908 1133.39 801.961 1137.94 C 795.898 1138.78 786.357 1141.27 781.906 1145.81 C 761.352 1166.74 743.056 1191.65 724.528 1214.38 C 688.406 1258.64 652.054 1302.72 615.473 1346.6 C 609.276 1354.7 601.659 1367.08 590.467 1367.11 C 581.573 1359.02 609.013 1331.95 614.896 1325.03 C 625.82 1312.05 636.587 1298.94 647.195 1285.71 L 725.273 1190.43 C 736.819 1176.35 748.016 1161.98 759.617 1147.93 C 772.547 1132.27 785.158 1124.24 805.604 1122.57 C 839.59 1119.81 862.417 1156.01 884.723 1176.2 C 892.902 1183.61 902.916 1186.21 913.85 1184.97 C 919.59 1184.32 925.734 1180.41 929.863 1176.45 C 938.751 1167.91 946.711 1156.36 954.497 1146.65 C 964.772 1133.84 976.352 1120.89 986.484 1108.23 C 996.501 1094.99 1010.77 1086.44 1027.4 1085.16 C 1041.17 1084.11 1057.19 1089.73 1066.93 1098.86 C 1082.39 1113.35 1094.55 1133.78 1118.71 1131.62 C 1127.47 1130.84 1133.9 1127.24 1140.25 1121.17 C 1151.23 1110.69 1160.48 1098.38 1170.21 1086.71 L 1208.57 1041.46 L 1343.72 881.116 C 1340.4 878.929 1336.99 876.788 1333.7 874.526 C 1301.09 852.218 1288.52 802.696 1311.18 769.254 C 1323.74 750.866 1344.33 737.306 1355.01 717.619 C 1362.29 704.182 1364.73 691.991 1365.23 677.04 C 1365.23 677.039 1367.56 673.712 1367.83 673.317 z" fill="rgb(0,200,5)" transform="translate(0,0)"></path>
<path d="M 1375.69 695.641 C 1380.09 699.645 1383.91 709.447 1386.71 714.914 C 1399.84 740.537 1394.41 757.923 1382.28 782.336 C 1379.5 787.932 1375.63 790.021 1376.44 796.523 C 1387.1 808.871 1398.84 775.484 1401.14 769.202 C 1404.85 759.059 1405.16 749.956 1405.25 739.274 C 1439.26 767.824 1458.98 804.425 1432.48 845.795 C 1426.33 854.083 1419.97 860.553 1411.05 865.906 C 1396.73 874.357 1379.67 876.855 1363.53 872.864 C 1346.59 868.621 1331.65 857.134 1322.69 842.198 C 1317.39 833.406 1314.37 823.431 1313.91 813.178 C 1311.92 776.503 1339.51 764.89 1357.81 737.877 C 1368.58 721.971 1371.06 713.616 1375.69 695.641 z" fill="rgb(17,14,8)" transform="translate(0,0)"></path>
<metadata><recraft-signature>{"signed_by": "recraft", "signature_b64": "Yhw//+n02k24u4mPGFrnnxvNLu9XE/W8BUcAwve0RpUEjxDIXHcm/nqrbC6qg2AVIkYGZZxfB51xerSQUZ+0Dg==", "signing_algo": "Ed25519", "generation_timestamp": 1784257238, "identifier": "6fe782f1-5515-443f-9f0e-d5d2e9a53e94"}</recraft-signature></metadata></svg>