<svg xmlns="http://www.w3.org/2000/svg" height="1024" preserveAspectRatio="none" style="display: block;" version="1.1" viewBox="0 0 2048 2048" width="1024">
<path d="M 0 0 L 2048 0 L 2048 2048 L 0 2048 L 0 0 z" fill="rgb(17,14,8)" transform="translate(0,0)"></path>
<path d="M 1313 613.307 C 1377.94 650.682 1414.05 705.454 1415.36 781.53 L 1415.27 784.241 L 1416.52 783.952 C 1419.45 779.397 1420 778.099 1421.92 773 C 1425.64 764.132 1427.35 756.92 1428.86 747.428 C 1446.08 768.423 1458.15 794.142 1464.33 820.617 C 1477.97 879.012 1439.44 992.467 1364.3 984.08 C 1348.19 982.419 1333.41 974.391 1323.25 961.782 C 1314.74 951.037 1311.95 940.712 1309.49 927.601 C 1290.08 961.896 1270.73 1005.48 1251.91 1041.25 C 1230.07 1082.76 1206.68 1123.74 1185.09 1164.97 C 1170.63 1192.98 1155.53 1220.66 1139.8 1247.99 C 1126.6 1270.51 1112.38 1299.14 1085.03 1305.79 C 1019.85 1321.65 996.653 1256.06 972.505 1210.53 L 922.525 1117.74 C 913.219 1100.37 903 1078.51 889.801 1064.2 C 875.691 1050.64 856.529 1048.3 844.407 1065.15 C 831.161 1083.56 820.846 1102.87 808.133 1121.22 C 780.012 1161.8 754.815 1203.87 728.009 1245.25 C 715.864 1264 703.787 1282.17 692.217 1301.29 C 674.728 1330.41 656.686 1359.2 638.101 1387.63 C 630.131 1400.08 622.297 1412.38 614.14 1424.95 C 608.621 1434.82 594.147 1431.45 593.166 1420.48 C 592.904 1417.54 595.142 1413.35 596.697 1410.98 C 617.328 1379.6 637.227 1347.76 657.419 1316.1 C 698.028 1251.88 739.136 1187.98 780.739 1124.4 C 791.372 1108.18 824.235 1053.42 835.365 1043.38 C 844.162 1035.49 855.735 1031.44 867.528 1032.11 C 880.383 1032.88 898.037 1040.2 905.959 1050.2 C 921.648 1070.02 934.093 1096.02 946.117 1118.37 C 965.021 1152.73 983.573 1187.29 1001.77 1222.04 C 1015.52 1247.82 1029.12 1284.84 1062.51 1287.56 C 1081.79 1289.13 1095.02 1280.9 1105.14 1265.26 C 1117.79 1245.71 1128.38 1225.24 1139.54 1204.85 L 1235.68 1025.9 C 1265.3 970.04 1289.63 901.618 1337.34 858.482 C 1329.16 884.225 1321.89 915.141 1333.93 940.878 C 1344.71 963.904 1373.21 968.52 1394.19 956.874 C 1417.78 943.783 1432.78 912.389 1440.65 887.605 C 1450.76 853.655 1446.6 825.992 1434.43 793.162 C 1420.09 817.341 1409.73 832.722 1381.15 842.505 C 1399.84 793.314 1397.76 753.864 1376.27 705.464 C 1370.61 692.44 1362.95 680.377 1353.57 669.708 C 1368.47 795.79 1215.39 801.542 1227.7 920.586 C 1230.04 943.139 1236.21 955.184 1247.21 974.489 C 1199.66 951.821 1198.57 891.218 1219.46 849.309 C 1249.25 789.538 1330.76 762.128 1333.57 688.447 C 1334.25 674.239 1332.29 660.028 1327.8 646.531 C 1323.88 634.898 1318.46 624.249 1313 613.307 z" fill="rgb(0,200,5)" transform="translate(0,0)"></path>
<metadata><recraft-signature>{"signed_by": "recraft", "signature_b64": "6V81ZbTYhLdBop0QfXIk9pCsB8mdp0RMjwIEL6BfxkvwFscxn66xv35OqYMJAqzuRAXYopD/3xLCjnG8vFzNAw==", "signing_algo": "Ed25519", "generation_timestamp": 1784257240, "identifier": "4e246303-0c8f-42c5-b960-e482331ece99"}</recraft-signature></metadata></svg>