<svg xmlns="http://www.w3.org/2000/svg" height="768" preserveAspectRatio="none" style="display: block;" version="1.1" viewBox="0 0 2048 1170" width="1344">
<path d="M 0 0 L 2048 0 L 2048 1170 L 0 1170 L 0 0 z" fill="rgb(17,14,8)" transform="translate(0,0)"></path>
<path d="M 738.742 460.197 C 794.588 465.892 839.641 566.689 837.665 617.079 C 835.728 666.479 806.578 703.979 757.028 709.921 C 749.06 710.261 741.08 709.629 733.265 708.038 C 711.775 703.457 692.972 690.554 680.969 672.149 C 650.466 625.025 677.683 577.718 712.274 542.977 C 738.238 516.901 764.583 498.427 738.742 460.197 z" fill="rgb(0,200,5)" transform="translate(0,0)"></path>
<path d="M 751.825 557.225 C 755.084 556.923 755.89 556.935 759.136 557.354 C 759.819 560.135 747.694 577.995 751.052 590.846 C 758.476 619.26 779.89 627.179 806.874 622.677 C 800.242 641.645 792.064 650.743 772.895 657.201 C 759.373 660.131 747.586 660.162 735.238 653.045 C 723.625 646.217 715.2 635.056 711.814 622.017 C 703.786 591.648 721.91 564.597 751.825 557.225 z" fill="rgb(17,14,8)" transform="translate(0,0)"></path>
<path d="M 1097.84 510.983 C 1124.34 510.97 1186.38 506.961 1207.95 517.783 C 1217.6 522.622 1225.39 530.589 1228.68 540.999 C 1232.19 552.085 1231.03 567.31 1225.46 577.559 C 1219.21 589.047 1207.33 593.735 1195.51 597.357 C 1197.2 597.994 1198.87 598.676 1200.53 599.404 C 1225.68 610.346 1224 630.099 1227.57 653.236 C 1228.97 662.339 1231.29 668.955 1234.63 677.465 C 1227.15 677.393 1218.03 678.83 1210.75 677.196 C 1208.26 676.637 1208.05 674.989 1206.75 672.488 C 1202.45 655.424 1202.15 626.212 1191.37 615.221 C 1181.62 605.276 1137.24 608.074 1121.67 608.127 L 1121.73 677.227 L 1097.73 677.183 L 1097.84 510.983 z" fill="rgb(245,243,238)" transform="translate(0,0)"></path>
<path d="M 1121.37 530.36 C 1141.76 530.182 1167.54 528.39 1187.03 532.152 C 1208.92 536.379 1210.62 565.331 1198.01 580.56 C 1182.94 591.554 1141.9 588.13 1121.21 588.019 L 1121.37 530.36 z" fill="rgb(17,14,8)" transform="translate(0,0)"></path>
<path d="M 1259.15 511.873 L 1377.9 511.915 L 1377.91 532.052 L 1283.47 532.19 L 1283.22 582.227 L 1368.94 582.108 L 1368.96 602.091 L 1291.2 602.089 C 1287.38 602.159 1286.47 601.537 1283.64 603.347 C 1282.46 610.376 1283.14 647.156 1283.17 656.911 L 1379.88 656.862 L 1379.9 677.287 L 1259.4 677.226 L 1259.15 511.873 z" fill="rgb(245,243,238)" transform="translate(0,0)"></path>
<path d="M 900.328 511.817 L 1017.35 512.017 L 1017.39 532.292 L 924.256 532.495 L 924.112 585.662 C 949.964 585.491 975.818 585.467 1001.67 585.59 L 1001.5 605.92 L 924.412 605.815 C 924.147 629.392 924.351 653.45 924.327 677.062 L 900.98 677.059 C 901.058 621.978 900.841 566.896 900.328 511.817 z" fill="rgb(245,243,238)" transform="translate(0,0)"></path>
<path d="M 1041.47 511.891 L 1065.06 511.905 L 1065.13 677.007 L 1041.88 676.963 L 1041.47 511.891 z" fill="rgb(245,243,238)" transform="translate(0,0)"></path>
<metadata><recraft-signature>{"signed_by": "recraft", "signature_b64": "7RK1JdQrMOLofO3fdC6dZBs0HPLUEspF65B0ewEKsYqgzN6g+1Pzf6EhQmLOyg33nrwocOgQ/l9EUBeTL/ivAA==", "signing_algo": "Ed25519", "generation_timestamp": 1784257541, "identifier": "195624fc-317e-4057-a49a-4e7a9d2f4745"}</recraft-signature></metadata></svg>