<svg xmlns="http://www.w3.org/2000/svg" height="1024" preserveAspectRatio="none" style="display: block;" version="1.1" viewBox="0 0 2048 2048" width="1024">
<path d="M 0 0 L 2048 0 L 2048 2048 L 0 2048 L 0 0 z" fill="rgb(17,14,8)" transform="translate(0,0)"></path>
<path d="M 1017.91 550.146 C 1016.86 545.465 1014.95 534.692 1015.53 530.152 L 1016.78 530.18 L 1019.39 534.318 C 1097.12 658.386 1167.69 793.569 1239.28 921.749 C 1263.69 965.467 1284.78 1018.35 1306.47 1063.81 C 1369.95 1210.32 1316.89 1385.45 1180.19 1469.8 C 1173.99 1473.68 1167.63 1477.29 1161.12 1480.62 L 1159.05 1476.51 C 1189.43 1445.07 1205.61 1424.46 1220.72 1382.69 C 1242.58 1324.1 1243.9 1259.82 1224.46 1200.39 C 1218.59 1182.6 1211.84 1168.53 1203.93 1151.65 L 1197.63 1139.08 L 1191.93 1154.42 C 1158.65 1229.24 1108.84 1267.94 1049.55 1320.83 C 1038.66 1330.55 1026.38 1339.52 1016.02 1349.63 C 1023.25 1329.84 1040.73 1296.42 1050.47 1275.8 C 1092.42 1187.02 1142.8 1094.33 1147.06 993.969 C 1148.66 956.395 1143.2 922.942 1134.56 886.727 L 1125.36 856.349 C 1124.79 867.718 1122.78 877.756 1120.25 888.838 C 1101.33 967.779 1059.06 1021.46 1003.42 1077.33 C 944.13 1136.85 883.367 1202.54 865.361 1287.17 C 842.837 1393.04 913.45 1478.13 1009.95 1509.96 C 1018.44 1512.48 1026.63 1514.95 1035.24 1517.07 L 1038.29 1520.27 C 1028.09 1520.42 1017.9 1520.41 1007.71 1520.22 C 988.995 1518.78 964.839 1516.62 946.632 1512.31 C 899.878 1501.25 851.695 1475.03 815.135 1444.06 C 769.566 1405.46 734.68 1348.4 721.901 1289.81 C 707.938 1225.8 714.448 1187.96 736.191 1128.15 C 772.632 1027.91 839.466 957.723 903.035 874.81 C 960.56 799.781 1009.51 706.501 1018.58 610.958 C 1020.54 590.309 1019.47 570.752 1017.91 550.146 z" fill="rgb(0,200,5)" transform="translate(0,0)"></path>
<path d="M 1159.05 1476.51 L 1161.12 1480.62 C 1155.74 1483.71 1151.07 1485.95 1145.43 1488.51 C 1150.35 1484.31 1154.37 1480.98 1159.05 1476.51 z" fill="rgb(53,217,45)" transform="translate(0,0)"></path>
<path d="M 1035.24 1517.07 C 1037.18 1517.41 1042.93 1518.1 1044.14 1519.43 C 1043.56 1520.16 1039.23 1520.2 1038.29 1520.27 L 1035.24 1517.07 z" fill="rgb(53,217,45)" transform="translate(0,0)"></path>
<metadata><recraft-signature>{"signed_by": "recraft", "signature_b64": "X1Mt5D+m6W+l5Yp8PdyNlDY5ZfeclLq8DYIiRDmaPQ4pH1kA2jGwkny/rRQMERnC9R87ryyg55yAAoY93TM6Bg==", "signing_algo": "Ed25519", "generation_timestamp": 1784257541, "identifier": "9848a279-968e-4002-bde4-f8a70270379f"}</recraft-signature></metadata></svg>