<svg xmlns="http://www.w3.org/2000/svg" height="768" preserveAspectRatio="none" style="display: block;" version="1.1" viewBox="0 0 2048 1170" width="1344">
<path d="M 0 0 L 2048 0 L 2048 1170 L 0 1170 L 0 0 z" fill="rgb(17,14,8)" transform="translate(0,0)"></path>
<path d="M 1035.59 526.109 C 1053.81 526.157 1075.53 524.112 1093.16 527.802 C 1115.08 532.387 1123.46 559.553 1113.11 577.9 C 1108.84 585.459 1102.34 588.992 1094.95 592.79 C 1101.11 608.112 1113.39 630.045 1121.14 645.474 C 1109.27 645.689 1104.21 649.981 1098.41 638.259 C 1091.89 623.811 1084.06 609.149 1076.76 594.995 L 1052.11 595.024 L 1052.12 645.351 L 1035.81 645.327 C 1035.31 605.878 1035.67 565.633 1035.59 526.109 z" fill="rgb(245,243,238)" transform="translate(0,0)"></path>
<path d="M 1052.23 541.257 C 1061.78 541.211 1072.04 540.752 1081.51 541.224 C 1101.01 542.195 1104.37 560.839 1094.58 574.829 C 1084.15 582.694 1066.59 579.814 1052.12 579.84 C 1052.17 567.078 1051.96 553.97 1052.23 541.257 z" fill="rgb(17,14,8)" transform="translate(0,0)"></path>
<path d="M 757.196 512.054 L 770.448 512.246 L 769.884 525.446 C 793.943 529.603 801.444 540.441 800.92 564.148 L 784.979 564.275 C 785.011 549.548 783.736 548.158 771.005 540.933 L 770.892 578.726 C 777.116 580.273 782.481 581.45 787.866 585.128 C 795.538 590.279 800.718 598.393 802.162 607.52 C 805.814 629.584 791.416 643.605 770.619 646.492 C 770.744 650.909 770.63 655.404 770.567 659.829 L 757.053 659.894 L 756.994 647.998 C 732.871 640.195 726.575 629.417 726.7 605.335 L 742.867 605.031 C 742.866 621.261 743.304 623.928 758.121 631.623 L 758.168 590.852 C 756.77 590.312 755.38 589.753 753.996 589.178 C 736.174 581.724 722.719 564.785 731.052 544.193 C 736.068 531.796 744.466 529.59 756.028 525.032 C 757.626 521.968 757.202 515.785 757.196 512.054 z" fill="rgb(20,254,43)" transform="translate(0,0)"></path>
<path d="M 770.371 593.301 C 785.726 598.611 790.179 611.999 781.44 625.754 C 767.445 636.732 770.838 625.246 770.453 614.348 C 770.21 607.468 770.329 600.19 770.371 593.301 z" fill="rgb(17,14,8)" transform="translate(0,0)"></path>
<path d="M 753.347 541.465 C 753.914 541.509 757.563 541.56 757.68 542.388 C 758.171 545.866 758.62 571.208 757.469 572.16 C 756.246 572.361 755.073 571.634 753.944 571.249 C 744.389 564.06 742.88 552.153 751.273 543.575 L 753.347 541.465 z" fill="rgb(17,14,8)" transform="translate(0,0)"></path>
<path d="M 1141.81 526.024 L 1221.26 526.1 L 1221.38 541.408 L 1158.8 541.524 L 1158.64 575.101 C 1175.96 575.108 1193.76 574.92 1211.02 575.554 L 1211.05 591.648 C 1196.6 591.592 1172.27 590.798 1158.55 591.974 L 1158.19 629.869 L 1221.34 629.857 L 1221.33 645.425 L 1141.82 645.443 L 1141.81 526.024 z" fill="rgb(245,243,238)" transform="translate(0,0)"></path>
<path d="M 828.241 525.85 C 855.19 525.444 883.04 525.796 910.057 525.82 L 910.075 541.26 L 845.123 541.273 L 845.007 576.128 C 852.33 576.066 888.814 575.081 893.693 577.207 L 894.293 579.75 C 894.339 583.6 894.798 587.852 893.226 591.258 C 888.834 592.674 852.292 591.956 845.182 591.904 L 845.216 645.8 L 828.316 645.819 L 828.241 525.85 z" fill="rgb(245,243,238)" transform="translate(0,0)"></path>
<path d="M 929.149 526.107 L 1007.86 526.111 L 1007.89 540.913 L 976.217 540.96 C 975.781 570.605 976.137 601.176 976.108 630.898 L 1008.01 630.901 L 1008 644.72 C 1004 645.385 986.722 645.073 981.847 645.054 L 929.933 644.995 L 929.97 630.669 L 959.737 630.753 L 959.987 541.071 L 929.331 541.076 L 929.149 526.107 z" fill="rgb(245,243,238)" transform="translate(0,0)"></path>
<path d="M 1293.42 590.51 C 1299.51 592.73 1324.49 637.006 1329.08 645.024 C 1320.22 645.7 1306.94 645.244 1297.76 645.197 C 1285.22 645.264 1272.69 645.206 1260.15 645.024 C 1264.39 636.503 1287.73 597.685 1293.42 590.51 z" fill="rgb(20,254,43)" transform="translate(0,0)"></path>
<metadata><recraft-signature>{"signed_by": "recraft", "signature_b64": "mDBJS1ZrU3WtVT2Bykkf9Q0QfyX9FVzFsBMOTTH8KGJB+V6U159WshFMiyGp/axIeRZFK81MIWfunKJ9tSC6Aw==", "signing_algo": "Ed25519", "generation_timestamp": 1784257357, "identifier": "d8f22a06-efa6-4efe-94e3-554cd82240a4"}</recraft-signature></metadata></svg>