<svg xmlns="http://www.w3.org/2000/svg" height="768" preserveAspectRatio="none" style="display: block;" version="1.1" viewBox="0 0 2048 1170" width="1344">
<path d="M 0 0 L 2048 0 L 2048 1170 L 0 1170 L 0 0 z" fill="rgb(17,14,8)" transform="translate(0,0)"></path>
<path d="M 1028.41 527.459 L 1089.32 527.698 L 1105.43 539.241 L 1105.31 588.14 C 1101.44 591.445 1094.73 598.029 1090.53 600.16 C 1090.12 600.39 1088.28 600.643 1088.2 601.316 C 1086.5 615.706 1111.19 634.456 1107.57 648.272 C 1106.56 652.134 1096.61 651.179 1091.88 651.007 L 1085.52 638.642 L 1064.83 600.262 C 1057.47 600.182 1049.85 600.424 1042.47 600.569 C 1042.24 607.891 1043.61 641.106 1041.1 648.597 C 1035.75 653.488 1024.37 651.756 1025.11 643.237 C 1026.44 627.783 1021.44 533.979 1028.41 527.459 z" fill="rgb(245,243,238)" transform="translate(0,0)"></path>
<path d="M 1042.21 543.005 L 1088.82 542.978 L 1088.8 585.251 C 1073.27 585.086 1057.73 585.135 1042.2 585.399 L 1042.21 543.005 z" fill="rgb(17,14,8)" transform="translate(0,0)"></path>
<path d="M 711.168 516.005 L 724.836 516.085 L 724.946 529.925 L 735.519 530.139 C 741.627 534.919 747.212 539.977 753.001 545.127 L 752.826 568.164 C 748.558 568.552 743.484 568.525 739.138 568.613 L 739.22 551.352 L 725.05 541.125 L 724.968 583.168 C 735.156 587.502 745.263 592.536 755.245 597.363 L 755.451 634.37 C 750.757 639.205 743.589 646.145 738.286 650.043 C 734.349 649.858 729.079 649.029 726.053 651.069 C 724.472 654.108 725.075 656.707 725.331 660.226 C 725.177 661.387 724.836 661.998 724.403 663.131 C 720.94 664.692 715.703 663.848 711.745 663.551 C 711.821 659.711 712.364 654.583 710.747 651.328 C 707.917 649.262 703.829 649.922 700.032 649.998 C 693.973 644.957 687.969 639.849 682.023 634.675 L 681.925 610.491 L 696.621 610.879 L 696.897 629.179 C 702.086 632.507 706.317 634.422 711.838 637.023 C 712.151 623.067 711.954 608.351 711.974 594.335 C 703.23 589.645 690.351 584.331 682.684 578.958 L 682.53 545.889 C 688.071 540.789 693.586 535.661 699.075 530.505 L 711.25 529.978 L 711.168 516.005 z" fill="rgb(11,254,77)" transform="translate(0,0)"></path>
<path d="M 724.952 599.108 C 731.893 601.049 734.332 602.136 740.875 604.955 C 740.944 612.208 741.026 619.852 740.913 627.113 C 740.88 629.275 736.984 631.51 734.915 633.168 C 730.598 636.223 729.793 636.473 725.108 638.914 C 724.971 625.646 724.92 612.377 724.952 599.108 z" fill="rgb(17,14,8)" transform="translate(0,0)"></path>
<path d="M 709.763 543.842 C 713.16 544.502 712.503 552.076 711.938 555.344 C 709.232 571.003 719.259 577.998 702.229 574.281 C 701.501 573.984 698.759 572.927 698.638 572.46 C 697.648 568.67 698.193 554.205 698.239 550.838 C 702.995 547.523 704.607 546.423 709.763 543.842 z" fill="rgb(17,14,8)" transform="translate(0,0)"></path>
<path d="M 1140.64 528.001 C 1163.48 527.061 1193.94 527.811 1217.07 528.041 C 1217.27 533.54 1217.04 539.766 1216.97 545.324 C 1198.18 546.011 1175.38 545.398 1156.31 545.437 L 1156.22 583.041 C 1169.01 583.05 1199.02 582.086 1209.87 583.572 C 1213.84 586.447 1213.49 592.18 1211.08 596.074 C 1206.46 599.089 1165.21 597.727 1157.01 597.724 C 1155.93 602.929 1156.38 625.979 1156.41 632.469 C 1173.24 632.39 1200.96 631.665 1217.09 633.067 C 1217.26 637.388 1219.01 649.832 1213.58 650.039 C 1203.12 650.437 1146.1 652.538 1140.45 649.204 C 1138.14 641.187 1138.07 533.318 1140.64 528.001 z" fill="rgb(245,243,238)" transform="translate(0,0)"></path>
<path d="M 794.781 527.363 C 805.141 527.088 865.938 526.301 870.554 529.41 C 871.317 531.024 871.608 532.467 871.681 534.238 C 871.786 536.794 872.054 541.209 870.004 543.154 C 865.964 546.989 819.264 544.962 810.087 544.925 L 810.01 583.967 C 820.639 583.97 854.616 583.081 862.814 584.846 C 865.581 587.35 864.797 586.953 865.762 591.246 C 865.461 593.146 865.069 595.117 864.721 597.016 C 864.198 597.503 863.568 598.09 862.83 598.777 C 847.917 599.729 824.297 599.266 810.113 599.297 C 810.076 607.366 811.855 643.145 808.903 647.636 C 807.348 650.001 804.82 651.274 802.083 651.723 C 798.977 652.233 796.904 651.441 794.469 649.577 C 792.483 646.384 792.189 636.502 792.536 632.94 C 793.869 619.266 789.589 533.247 794.781 527.363 z" fill="rgb(245,243,238)" transform="translate(0,0)"></path>
<path d="M 912.207 527.96 C 925.987 527.199 941.721 528.096 955.722 527.748 C 964.503 527.883 973.414 527.458 982.171 528.163 C 987.624 528.602 986.672 536.479 985.666 540.033 C 982.07 543.102 964.555 542.01 958.843 541.94 L 958.836 635.926 C 968.437 635.688 997.525 632.17 984.485 650.882 C 964.19 650.873 934.498 652.194 913.741 649.838 C 910.449 649.465 909.949 641.908 911.853 638.638 C 917.057 633.975 933.292 635.952 941.045 636.104 L 941.245 541.934 C 926.363 541.612 907.338 548.8 912.207 527.96 z" fill="rgb(245,243,238)" transform="translate(0,0)"></path>
<path d="M 1295.18 579.559 C 1296.25 579.67 1297.49 579.738 1298.51 580.075 C 1300.86 580.852 1333.02 631.741 1336.31 637.791 C 1338.13 641.145 1340.64 645.811 1339.55 649.611 C 1333.45 651.005 1308.72 650.231 1300.81 650.137 C 1292.4 650.077 1259.68 651.645 1254.48 649.008 C 1254.23 648.264 1254.1 648.035 1254.03 647.307 C 1253.24 639.541 1288.35 588.646 1295.18 579.559 z" fill="rgb(11,254,77)" transform="translate(0,0)"></path>
<metadata><recraft-signature>{"signed_by": "recraft", "signature_b64": "yrVR9Ei3GCjl6STb8exj2yUeYlFIyIBni2/jjP9pSTbmMkDR54CujVo/cis6WLPnfMPSqWUNnGJXaVSvJ9lzCg==", "signing_algo": "Ed25519", "generation_timestamp": 1784257357, "identifier": "2d7793d3-3d76-415f-8ab8-a706fddb973b"}</recraft-signature></metadata></svg>