<svg xmlns="http://www.w3.org/2000/svg" height="768" preserveAspectRatio="none" style="display: block;" version="1.1" viewBox="0 0 2048 1170" width="1344">
<path d="M 0 0 L 2048 0 L 2048 1170 L 0 1170 L 0 0 z" fill="rgb(17,14,8)" transform="translate(0,0)"></path>
<path d="M 994.031 507.946 C 1012.69 507.864 1072.53 506.097 1086.29 510.592 C 1098.57 514.623 1108.75 523.376 1114.56 534.919 C 1120.66 547.276 1120.9 564.669 1116.13 577.434 C 1109.99 593.871 1100.62 599.922 1085.9 606.813 C 1097.33 628.357 1108.21 649.681 1119.84 671.208 C 1114.42 671.28 1097.18 672.566 1094.07 669.329 C 1083.42 649.824 1073.13 628.733 1063.04 608.837 L 1015.2 608.793 L 1015.35 671.022 L 994.152 670.977 L 994.031 507.946 z" fill="rgb(245,243,238)" transform="translate(0,0)"></path>
<path d="M 1015.47 527.775 C 1034.21 528.065 1057.42 525.83 1075.49 528.542 C 1100.53 532.302 1102.75 563.501 1089.62 580.863 C 1074.89 593.08 1034.6 588.72 1015.31 588.569 L 1015.47 527.775 z" fill="rgb(17,14,8)" transform="translate(0,0)"></path>
<path d="M 1147.39 507.863 L 1259.88 507.947 L 1259.86 527.697 L 1169.84 527.741 L 1169.79 578.65 C 1197.95 579.036 1226.52 578.871 1254.72 578.928 L 1254.71 598.581 L 1180.58 598.829 C 1177.34 598.807 1172.78 598.356 1170.44 600.228 C 1169.11 610.168 1169.83 639.344 1169.85 650.724 L 1262.17 650.71 L 1262.22 671.107 L 1147.22 671.208 L 1147.39 507.863 z" fill="rgb(245,243,238)" transform="translate(0,0)"></path>
<path d="M 785.895 507.92 C 821.998 507.41 859.244 507.893 895.439 507.903 L 895.372 527.739 L 807.797 527.86 L 807.877 578.76 L 860.317 578.883 C 865.953 578.886 883.698 578.476 888.467 579.599 L 889.233 581.75 L 889.173 598.16 C 862.043 598.144 834.912 598.339 807.784 598.744 L 807.932 671.081 L 785.961 671.067 L 785.895 507.92 z" fill="rgb(245,243,238)" transform="translate(0,0)"></path>
<path d="M 936.285 546.876 C 936.278 538.088 935.528 476.281 936.954 473.719 C 939.987 472.497 938.662 472.684 942.054 473.19 C 944.36 478.698 943.002 537.146 942.933 546.961 L 961.147 546.68 L 961.6 671.06 L 942.888 670.998 C 943.038 678.627 944.082 692.443 940.262 698.569 L 938.983 698.443 C 935.486 691.129 936.556 679.756 936.824 671.595 C 932.923 670.421 922.588 670.958 918.036 671.021 L 918.51 546.821 L 936.285 546.876 z" fill="rgb(0,200,5)" transform="translate(0,0)"></path>
<metadata><recraft-signature>{"signed_by": "recraft", "signature_b64": "hVErOn5ABqHpel4Kb45p4njkBnL6yTGAy+ryxuNtrPZFvSnc2zOyLmdWHSiwaD3+72NHmI+ab+FBibExKtcZBA==", "signing_algo": "Ed25519", "generation_timestamp": 1784257351, "identifier": "af5f2a98-eaad-416c-8c7f-0454ae6bae30"}</recraft-signature></metadata></svg>