<svg xmlns="http://www.w3.org/2000/svg" height="768" preserveAspectRatio="none" style="display: block;" version="1.1" viewBox="0 0 2048 1170" width="1344">
<path d="M 0 0 L 2048 0 L 2048 1170 L 0 1170 L 0 0 z" fill="rgb(17,14,8)" transform="translate(0,0)"></path>
<path d="M 1057.27 517.467 C 1087.15 516.736 1127.86 527.822 1117.06 568.73 C 1113.55 582.037 1098.39 590.432 1086.49 595.903 C 1131.42 610.196 1108.55 639.657 1118.52 672.456 L 1095.37 672.501 C 1090.44 648.878 1100.36 619.148 1077.42 606.843 C 1064.07 602.13 1027.53 603.769 1011.58 603.848 C 1011.06 625.763 1011.61 650.671 1011.65 672.791 L 988.91 672.818 L 988.531 517.759 C 1011.44 517.947 1034.36 517.85 1057.27 517.467 z" fill="rgb(245,243,238)" transform="translate(0,0)"></path>
<path d="M 1011.93 533.719 C 1031.91 533.548 1055.38 531.998 1074.87 535.422 C 1096.9 539.292 1101.13 564.818 1087.22 580.247 C 1069.64 593.031 1034.73 589.11 1011.86 588.916 L 1011.93 533.719 z" fill="rgb(17,14,8)" transform="translate(0,0)"></path>
<path d="M 1142.88 518.076 L 1265.55 518.381 C 1265.75 523.708 1265.71 529.481 1265.79 534.851 L 1164.53 534.691 C 1164.39 550.918 1164.34 567.145 1164.37 583.373 L 1258.14 583.553 L 1258.09 599.115 L 1183.5 599.158 L 1164.61 599.299 C 1164.43 618.498 1164.39 637.699 1164.5 656.899 C 1198.6 656.726 1232.71 656.752 1266.81 656.976 L 1266.73 672.754 C 1225.46 672.898 1184.19 672.811 1142.93 672.493 L 1142.88 518.076 z" fill="rgb(245,243,238)" transform="translate(0,0)"></path>
<path d="M 783.868 518.273 L 905.903 518.269 L 905.902 534.457 L 807.11 534.772 L 807.006 583.941 L 881.25 583.918 C 883.918 583.821 884.338 583.671 886.776 584.58 C 889.207 588.064 888.165 594.584 888.014 599.232 L 806.964 599.168 L 806.881 672.562 L 783.322 672.494 L 783.868 518.273 z" fill="rgb(245,243,238)" transform="translate(0,0)"></path>
<path d="M 917.936 539.562 L 934.869 539.815 C 936.272 539.895 937.463 539.915 938.865 539.91 L 956.108 539.815 L 955.86 672.126 L 918.497 671.978 L 917.936 539.562 z" fill="rgb(0,200,5)" transform="translate(0,0)"></path>
<path d="M 970.685 517.937 L 972.49 517.194 C 976.679 517.194 980.126 517.24 984.333 517.473 C 984.206 527.845 984.17 538.219 984.226 548.591 C 976.38 548.732 968.533 548.78 960.685 548.735 C 960.874 539.127 961.017 529.537 960.931 519.923 C 960.927 519.42 961.141 517.811 961.58 517.571 C 963.53 516.504 968.586 517.559 970.685 517.937 z" fill="rgb(0,200,5)" transform="translate(0,0)"></path>
<path d="M 970.685 517.937 C 969.988 513.253 969.022 483.211 971.14 480.854 L 972.163 481.007 C 973.504 484.485 972.456 511.436 972.49 517.194 L 970.685 517.937 z" fill="rgb(0,200,5)" transform="translate(0,0)"></path>
<path d="M 934.869 539.815 L 934.933 539.101 C 935.213 535.686 934.524 521.196 936.274 519.715 C 940.081 516.491 938.659 537.118 938.865 539.91 C 937.463 539.915 936.272 539.895 934.869 539.815 z" fill="rgb(0,200,5)" transform="translate(0,0)"></path>
<metadata><recraft-signature>{"signed_by": "recraft", "signature_b64": "Pvo4sCu1OvhH5aK4i9wYwsQAzFIAP86EnP0fklOuf2DvtcSCSo385WzPHLMyyx1dd3JjrYnJrRDdjT5ho9IhCg==", "signing_algo": "Ed25519", "generation_timestamp": 1784257350, "identifier": "ed16262a-4193-474d-9a5a-2e38ddb3760c"}</recraft-signature></metadata></svg>